<svg width="40" height="40" viewBox="0 0 40 40" fill="none" xmlns="http://www.w3.org/2000/svg">
<path d="M19.8322 3.30518C16.5635 3.30518 13.3682 4.27446 10.6504 6.09045C7.93256 7.90644 5.81427 10.4876 4.5634 13.5075C3.31252 16.5273 2.98523 19.8503 3.62292 23.0562C4.26062 26.2621 5.83464 29.2069 8.14596 31.5182C10.4573 33.8295 13.4021 35.4036 16.608 36.0413C19.8139 36.679 23.1369 36.3517 26.1567 35.1008C29.1766 33.8499 31.7577 31.7316 33.5737 29.0138C35.3897 26.296 36.359 23.1007 36.359 19.832C36.359 17.6617 35.9315 15.5126 35.101 13.5075C34.2704 11.5023 33.0531 9.68043 31.5184 8.14577C29.9838 6.61111 28.1619 5.39376 26.1567 4.56321C24.1516 3.73265 22.0025 3.30518 19.8322 3.30518ZM19.8322 33.0535C17.2172 33.0535 14.661 32.278 12.4867 30.8252C10.3125 29.3724 8.61786 27.3075 7.61716 24.8916C6.61645 22.4757 6.35463 19.8173 6.86478 17.2526C7.37493 14.6879 8.63415 12.3321 10.4832 10.483C12.3323 8.63396 14.6881 7.37474 17.2528 6.86459C19.8175 6.35443 22.4759 6.61626 24.8918 7.61696C27.3077 8.61767 29.3726 10.3123 30.8254 12.4866C32.2782 14.6608 33.0536 17.217 33.0536 19.832C33.0536 23.3385 31.6607 26.7015 29.1812 29.181C26.7017 31.6605 23.3387 33.0535 19.8322 33.0535Z" fill="#275C4F"/>
<path d="M19.8322 9.91613C18.2981 9.91613 16.8268 10.5256 15.742 11.6103C14.6572 12.6951 14.0478 14.1664 14.0478 15.7005C14.0478 16.1388 14.2219 16.5592 14.5319 16.8691C14.8418 17.1791 15.2622 17.3532 15.7005 17.3532C16.1388 17.3532 16.5592 17.1791 16.8691 16.8691C17.179 16.5592 17.3532 16.1388 17.3532 15.7005C17.3532 15.2102 17.4986 14.7309 17.771 14.3232C18.0434 13.9156 18.4305 13.5978 18.8835 13.4102C19.3365 13.2226 19.8349 13.1735 20.3158 13.2691C20.7967 13.3648 21.2384 13.6009 21.5851 13.9476C21.9318 14.2943 22.1679 14.736 22.2636 15.2169C22.3592 15.6978 22.3101 16.1962 22.1225 16.6492C21.9349 17.1022 21.6171 17.4893 21.2095 17.7617C20.8018 18.0341 20.3225 18.1795 19.8322 18.1795C19.3939 18.1795 18.9735 18.3537 18.6636 18.6636C18.3536 18.9735 18.1795 19.3939 18.1795 19.8322V23.1376C18.1795 23.5759 18.3536 23.9963 18.6636 24.3062C18.9735 24.6161 19.3939 24.7903 19.8322 24.7903C20.2705 24.7903 20.6909 24.6161 21.0008 24.3062C21.3108 23.9963 21.4849 23.5759 21.4849 23.1376V21.2205C22.8204 20.8305 23.97 19.9708 24.7216 18.8C25.4733 17.6292 25.7765 16.2262 25.5752 14.8495C25.3739 13.4728 24.6818 12.2153 23.6264 11.3087C22.571 10.4021 21.2235 9.90749 19.8322 9.91613Z" fill="#275C4F"/>
<path d="M19.8322 29.7482C20.7449 29.7482 21.4849 29.0083 21.4849 28.0956C21.4849 27.1828 20.7449 26.4429 19.8322 26.4429C18.9194 26.4429 18.1795 27.1828 18.1795 28.0956C18.1795 29.0083 18.9194 29.7482 19.8322 29.7482Z" fill="#275C4F"/>
</svg>
